PathFileType	4	(X/Y/Z)	Run_400 05
DataRate	CameraRate	NumFrames	NumMarkers	Units	OrigDataRate	OrigDataStartFrame	OrigNumFrames
120	120	4	42	mm	120	297	128
Frame#	Time	LASI			RASI			LPSI			RPSI			RTH1			RTH2			RTH3			LTH1			LTH2			LTH3			RTB1			RTB2			RTB3			LTB1			LTB2			LTB3			RCAL			RTOE			RMT5			LCAL			LTOE			LMT5			LACR			RACR			CLAV			C7			RUA1			RUA2			RUA3			RLEL			RMEL			LUA1			LUA2			LUA3			LLEL			LMEL			RFAsuperior			RFAradius			RFAulna			LFAsuperior			LFAradius			LFAulna		
		X1	Y1	Z1	X2	Y2	Z2	X3	Y3	Z3	X4	Y4	Z4	X5	Y5	Z5	X6	Y6	Z6	X7	Y7	Z7	X8	Y8	Z8	X9	Y9	Z9	X10	Y10	Z10	X11	Y11	Z11	X12	Y12	Z12	X13	Y13	Z13	X14	Y14	Z14	X15	Y15	Z15	X16	Y16	Z16	X17	Y17	Z17	X18	Y18	Z18	X19	Y19	Z19	X20	Y20	Z20	X21	Y21	Z21	X22	Y22	Z22	X23	Y23	Z23	X24	Y24	Z24	X25	Y25	Z25	X26	Y26	Z26	X27	Y27	Z27	X28	Y28	Z28	X29	Y29	Z29	X30	Y30	Z30	X31	Y31	Z31	X32	Y32	Z32	X33	Y33	Z33	X34	Y34	Z34	X35	Y35	Z35	X36	Y36	Z36	X37	Y37	Z37	X38	Y38	Z38	X39	Y39	Z39	X40	Y40	Z40	X41	Y41	Z41	X42	Y42	Z42	

297	  2.475000	1032.983029	1061.972294	-422.841708	997.111835	1064.655519	-164.850267	845.794233	1107.639346	-367.846520	835.510597	1105.926827	-284.666542	894.635249	906.841878	-125.250568	913.170298	789.356751	-136.995394	807.433010	700.075326	-171.589624	1057.468752	883.432356	-469.733873	1180.620430	831.264552	-447.262804	1191.717742	708.606164	-436.680549	746.581840	400.321976	-257.454717	690.515750	354.255396	-193.245171	642.689259	269.204821	-266.188876	1219.821641	508.176640	-362.892560	1141.427657	463.500575	-415.217342	1076.253746	365.032208	-354.917913	460.106198	199.541093	-281.191660	648.307312	 61.566826	-307.030643	576.259860	 66.137442	-215.863038	901.963180	329.036728	-337.139628	1073.824026	170.471239	-348.489140	998.644171	200.156592	-429.009783	1009.650577	1539.170718	-488.937796	1054.683188	1547.991711	-155.707601	1080.683400	1486.206964	-293.787726	957.034460	1572.386547	-306.095464	1056.584904	1453.559737	-71.246581	1070.857913	1364.700510	-69.316010	1011.104817	1355.692938	-16.617940	1025.208316	1228.485065	 44.687016	983.154944	1197.803643	-23.859119	954.723179	1475.278729	-564.291520	942.882430	1404.047068	-568.326692	847.172597	1425.061622	-548.113139	780.675008	1283.436758	-618.605874	742.010953	1286.075816	-542.022210	1123.531005	1255.885287	  2.120913	1225.334640	1299.956379	-137.825560	1257.210988	1256.918247	-89.320570	868.616001	1245.192583	-597.297501	1001.945278	1208.305965	-480.429053	990.818507	1145.005755	-514.586900	
298	  2.483333	1035.617417	1070.862175	-422.504076	1002.192887	1068.787024	-165.794914	849.241400	1114.964111	-366.520027	839.536002	1112.082501	-283.115341	894.810942	911.638875	-125.407933	907.630345	794.459200	-139.052216	797.400790	710.080500	-172.680442	1060.117778	893.096700	-471.006222	1182.611808	839.191431	-447.892680	1192.680330	715.349455	-436.692529	726.695913	411.411620	-258.694652	669.596828	366.341610	-194.480305	623.136281	279.559541	-266.919745	1232.307361	510.599569	-364.205342	1158.322130	458.468863	-416.470446	1102.583480	354.786508	-355.179218	444.262719	215.913619	-283.585318	618.261911	 61.111460	-307.661857	546.831554	 72.387729	-217.206386	932.585965	303.120159	-336.266284	1118.059874	161.033451	-348.246566	1039.791249	182.445328	-427.789159	1007.522396	1546.115369	-489.399666	1055.739746	1556.151395	-158.149510	1080.575192	1493.674558	-295.590207	956.668441	1578.329102	-306.562551	1059.299931	1462.590126	-73.438019	1074.412085	1373.976472	-71.688131	1014.397668	1363.988652	-19.217661	1031.555350	1237.132674	 42.747771	988.089321	1205.969400	-24.798256	950.673118	1485.089254	-562.784249	937.755881	1414.777220	-568.609852	842.904919	1435.742700	-544.363255	772.211791	1295.790974	-615.513582	736.554067	1298.204794	-537.943879	1127.679095	1267.274687	 -3.121615	1222.760582	1315.212256	-146.413785	1257.613457	1272.781272	-99.338060	860.745872	1257.229599	-596.023711	996.930452	1219.767611	-483.096468	984.493320	1156.298305	-516.807892	
299	  2.491667	1037.933355	1079.292633	-422.685967	1007.735728	1072.961899	-166.808897	852.764162	1121.921648	-364.870872	843.607078	1118.107594	-281.311567	895.249280	916.597325	-125.155340	902.450561	799.967087	-140.453127	788.617176	720.431652	-174.087206	1061.747734	901.954008	-472.617449	1183.713003	844.847284	-448.907537	1191.700906	719.533687	-435.466156	709.037955	423.276672	-260.333075	651.091856	379.139187	-196.108691	605.757502	290.511426	-267.796819	1243.505551	511.959812	-365.585055	1174.767697	452.760291	-417.960581	1128.652381	344.832007	-355.692541	431.625435	233.558003	-286.153563	589.564176	 62.559536	-307.838744	518.679222	 80.664800	-218.683029	964.176558	277.789807	-336.642131	1161.921798	153.780679	-346.944676	1082.224675	165.957972	-426.158404	1005.815560	1552.560990	-489.917752	1056.607026	1563.764210	-160.538795	1080.383133	1500.433911	-297.149082	956.272830	1583.870326	-307.019821	1061.406863	1471.066487	-75.471292	1077.246216	1382.910274	-73.500125	1016.693686	1372.082674	-21.488845	1036.765579	1245.340013	 40.999246	991.946595	1213.828696	-25.613045	947.639419	1493.668332	-561.289367	933.633841	1424.317992	-568.432649	839.744783	1445.723235	-540.934359	764.715393	1307.360153	-612.517350	731.538055	1309.642240	-534.001798	1130.587200	1277.947250	 -8.059936	1219.094465	1329.087109	-154.349501	1256.778920	1287.476794	-108.579803	853.619745	1268.534104	-594.588342	992.574886	1230.174227	-485.828931	978.669290	1166.497329	-518.541182	
300	  2.500000	1039.783046	1086.743601	-423.080575	1013.363931	1077.190299	-167.536747	856.227260	1128.231698	-362.943945	847.570989	1123.801810	-279.291037	895.657655	921.760140	-124.603684	897.784260	805.681582	-141.012269	781.299284	730.775416	-175.797997	1062.086552	908.665008	-473.809249	1183.622704	848.031075	-450.354842	1189.213793	721.329917	-433.422439	693.731644	435.313106	-262.274717	635.046774	392.198620	-198.099512	590.028759	302.169917	-269.018878	1253.245307	512.246886	-366.939661	1190.563902	446.551055	-419.533691	1154.246148	335.261251	-356.436188	420.827578	252.129228	-289.176243	562.867529	 67.090198	-307.516708	492.107400	 91.545789	-220.428141	996.465963	253.046069	-338.262356	1205.220452	148.867538	-344.641625	1125.774300	151.236090	-424.160811	1004.397963	1558.363785	-490.395549	1057.292695	1570.673954	-162.789875	1080.152047	1506.391984	-298.448084	955.871337	1588.869683	-307.439571	1062.907357	1478.889173	-77.301443	1079.416190	1391.354386	-74.787548	1018.311704	1379.935502	-23.205338	1040.896492	1252.937448	 39.500296	994.627038	1221.305486	-26.200155	945.337209	1500.988021	-560.133489	930.394100	1432.431727	-568.040203	837.540233	1454.821084	-537.941529	758.268205	1317.871072	-609.863117	727.204240	1320.013892	-530.537744	1132.347180	1287.682916	-12.611243	1214.454175	1341.486635	-161.558637	1254.818213	1300.798601	-117.051838	847.258813	1278.849456	-593.480997	988.931021	1239.521011	-488.556164	973.502668	1175.619324	-519.846603	
